<?xml version="1.0" encoding="utf-8"?>
<!-- Generator: Adobe Illustrator 19.2.1, SVG Export Plug-In . SVG Version: 6.00 Build 0)  -->
<svg version="1.1" id="Capa_1" xmlns="http://www.w3.org/2000/svg" xmlns:xlink="http://www.w3.org/1999/xlink" x="0px" y="0px"
	 viewBox="0 0 31.9 32" style="enable-background:new 0 0 31.9 32;" xml:space="preserve">
<style type="text/css">
	.st0{fill:#0047BA;}
	.st1{fill:#C8D2DC;}
</style>
<path class="st0" d="M22.5,30.8H20c-1.5,0-2.6-1.2-2.6-2.6v-9.3v-7.6h2.4c1.5,0,2.6,1.2,2.6,2.6v5.6v3.8V30.8z"/>
<path class="st0" d="M6.9,23v-0.2V4.2c0-1.5-1.2-2.6-2.6-2.6H1.8v26.6c0,1.5,1.2,2.6,2.6,2.6h2.4l0,0"/>
<polygon class="st1" points="6.9,23 17.4,11.2 17.4,18.8 6.9,30.7 6.9,30.8 "/>
<polygon class="st1" points="33.1,11.2 22.5,23.2 22.5,23.3 22.5,30.8 33.1,19.1 "/>
<path class="st0" d="M23.2,4.7c0,1.8-1.5,3.3-3.3,3.3c-1.8,0-3.3-1.5-3.3-3.3s1.5-3.3,3.3-3.3C21.7,1.4,23.2,2.9,23.2,4.7"/>
</svg>
