<?xml version="1.0" encoding="utf-8"?>
<!-- Generator: Adobe Illustrator 19.2.1, SVG Export Plug-In . SVG Version: 6.00 Build 0)  -->
<svg version="1.1" id="katman_1" xmlns="http://www.w3.org/2000/svg" xmlns:xlink="http://www.w3.org/1999/xlink" x="0px" y="0px"
	 viewBox="0 0 333.4 244.3" style="enable-background:new 0 0 333.4 244.3;" xml:space="preserve">
<style type="text/css">
	.st0{fill:#0047BA;}
	.st1{fill:#C8D2DC;}
</style>
<path class="st0" d="M184,57.8h14c8.6,0,15.5,7,15.5,15.5v55.2l84.6-86.4c6.1-6,15.9-6,21.9,0l12,12.2l-118.5,119h-14
	c-8.6,0-15.5-6.9-15.5-15.5v-53.5V57.8z"/>
<path class="st0" d="M121.6,173.3h-14.4c-8.6,0-15.5-6.9-15.5-15.5v-55v-45h14.4c8.6,0,15.5,7,15.5,15.5V106v22.1V173.3z"/>
<path class="st0" d="M30,127v-1V16.4c0-8.6-6.9-15.5-15.5-15.5H0v156.9c0,8.6,6.9,15.5,15.5,15.5h14.3l0.2-0.2"/>
<polygon class="st1" points="30,127 91.6,57.8 91.6,102.8 30.1,172.9 30,173.1 "/>
<polygon class="st1" points="184,57.8 121.6,128.2 121.6,129.1 121.6,173.3 184,104.2 "/>
<path class="st0" d="M125.9,19.3c0,10.7-8.6,19.3-19.3,19.3S87.3,30,87.3,19.3S95.9,0,106.6,0C117.3,0,125.9,8.7,125.9,19.3"/>
<polygon class="st0" points="24.4,244.4 24.4,228.2 11.6,228.2 11.6,244.4 0,244.4 0,203.3 11.6,203.3 11.6,218.2 24.4,218.2 
	24.4,203.3 36,203.3 36,244.4 "/>
<path class="st0" d="M85.1,223.7c0,3.4-0.5,6.4-1.4,9.1c-0.9,2.6-2.2,4.9-3.9,6.7c-1.7,1.8-3.7,3.2-6,4.1c-2.4,0.9-4.9,1.4-7.7,1.4
	s-5.3-0.5-7.7-1.4c-2.3-0.9-4.3-2.3-6-4.1c-1.7-1.8-3-4-3.9-6.6s-1.4-5.7-1.4-9.1s0.5-6.4,1.4-9.1c0.9-2.6,2.2-4.9,3.9-6.7
	c1.7-1.8,3.7-3.2,6.1-4.1c2.3-0.9,4.9-1.4,7.7-1.4s5.3,0.5,7.7,1.4c2.3,0.9,4.3,2.3,6,4c1.7,1.8,3,4,3.9,6.6
	C84.6,217.3,85.1,220.3,85.1,223.7 M73.3,223.9c0-3.7-0.6-6.5-1.9-8.4c-1.3-1.9-3.1-2.9-5.4-2.9c-2.3,0-4.1,0.9-5.3,2.8
	s-1.9,4.7-1.9,8.4c0,3.7,0.6,6.5,1.9,8.4c1.3,1.9,3.1,2.9,5.4,2.9c2.3,0,4.1-0.9,5.3-2.8C72.7,230.4,73.3,227.6,73.3,223.9"/>
<path class="st0" d="M128.8,231.7c0,2.3-0.4,4.4-1.3,6c-0.8,1.7-2,3.1-3.5,4.1s-3.3,1.8-5.4,2.4c-2.1,0.5-4.4,0.8-6.8,0.8
	c-3.3,0-6.5-0.5-9.5-1.4s-5.6-2.1-7.8-3.5l5.5-8.9c0.8,0.5,1.6,1,2.6,1.5s2,0.9,3.1,1.3s2.2,0.7,3.3,0.9c1.1,0.2,2.1,0.4,3.1,0.4
	c2,0,3.4-0.2,4.2-0.6s1.1-1.1,1.1-2c0-0.4-0.1-0.8-0.3-1.1c-0.2-0.3-0.6-0.6-1.1-0.9s-1.3-0.6-2.1-0.9c-0.9-0.3-2-0.6-3.4-0.9
	c-2.5-0.6-4.6-1.2-6.5-1.9c-1.8-0.7-3.4-1.5-4.6-2.5c-1.2-1-2.1-2.2-2.7-3.6c-0.6-1.4-0.9-3.2-0.9-5.2s0.4-3.7,1.1-5.3
	c0.8-1.6,1.8-2.9,3.3-4.1c1.4-1.1,3.1-2,5.1-2.6s4.2-0.9,6.7-0.9c3.5,0,6.6,0.4,9.2,1.2c2.6,0.8,5,2,7.2,3.5l-5.5,8.9
	c-1.8-1.2-3.7-2.2-5.5-2.9c-1.8-0.7-3.8-1-5.9-1c-1.7,0-2.9,0.2-3.4,0.7s-0.8,1.1-0.8,1.8c0,0.7,0.5,1.3,1.4,1.8s2.7,1,5.3,1.6
	s4.8,1.3,6.7,2.1c1.9,0.8,3.4,1.6,4.6,2.6c1.2,1,2.1,2.2,2.7,3.6C128.5,228.2,128.8,229.8,128.8,231.7"/>
<path class="st0" d="M175.2,216.9c0,2.6-0.4,4.8-1.2,6.6c-0.8,1.8-2,3.3-3.5,4.4s-3.3,1.9-5.3,2.4c-2.1,0.5-4.3,0.7-6.8,0.7h-5.7
	v13.3h-11.2v-41.1h17.7c2.4,0,4.6,0.3,6.6,0.7c1.9,0.5,3.6,1.3,5,2.3c1.4,1.1,2.5,2.5,3.2,4.2C174.8,212.3,175.2,214.4,175.2,216.9
	 M163.8,217.1c0-1.4-0.4-2.5-1.1-3.3s-2-1.2-3.9-1.2h-6.2v9.2h6c1.9,0,3.2-0.4,4-1.2C163.5,219.8,163.8,218.6,163.8,217.1"/>
<rect x="186.6" y="203.3" class="st0" width="11.6" height="41.1"/>
<polygon class="st0" points="233,213.2 233,244.4 221.6,244.4 221.6,213.2 210.1,213.2 210.1,203.3 244.5,203.3 244.5,213.2 "/>
<path class="st0" d="M278.4,244.4l-2.2-7.2h-12.3l-2.2,7.2h-12.2l14.9-41.1h11.5l14.9,41.1H278.4z M272.6,225.4
	c-0.4-1.3-0.7-2.5-0.9-3.5c-0.3-1-0.5-1.8-0.7-2.6c-0.2-0.8-0.4-1.5-0.6-2.1s-0.3-1.3-0.4-2c-0.1,0.7-0.3,1.4-0.4,2.1
	c-0.2,0.7-0.3,1.4-0.6,2.2c-0.2,0.8-0.5,1.7-0.7,2.6c-0.3,1-0.6,2.1-0.9,3.4l-0.8,2.7h6.8L272.6,225.4z"/>
<polygon class="st0" points="303.7,244.4 303.7,203.3 315.2,203.3 315.2,234.4 333.4,234.4 333.4,244.4 "/>
</svg>
